<svg width="24" height="24" viewBox="0 0 24 24" fill="none" xmlns="http://www.w3.org/2000/svg">
<g id="icon/view">
<g id="Vector">
<path fill-rule="evenodd" clip-rule="evenodd" d="M6.44336 7.89534C4.89238 9.10618 3.72688 10.5547 3.06667 11.4805C2.90336 11.7094 2.82562 11.8213 2.77928 11.9103C2.74983 11.9669 2.74991 11.9824 2.74999 11.9976L2.75 12L2.74999 12.0024C2.74991 12.0176 2.74983 12.0331 2.77928 12.0897C2.82562 12.1787 2.90335 12.2905 3.06666 12.5195C3.72686 13.4453 4.89238 14.8938 6.44336 16.1047C7.99587 17.3167 9.88134 18.25 12 18.25C14.1187 18.25 16.0041 17.3167 17.5566 16.1047C19.1076 14.8938 20.2731 13.4453 20.9334 12.5195C21.0967 12.2906 21.1744 12.1787 21.2207 12.0897C21.2502 12.0331 21.2501 12.0176 21.25 12.0024L21.25 12L21.25 11.9976C21.2501 11.9824 21.2502 11.9669 21.2207 11.9103C21.1744 11.8213 21.0967 11.7094 20.9334 11.4805C20.2731 10.5547 19.1076 9.10617 17.5566 7.89534C16.0041 6.68331 14.1186 5.75 12 5.75C9.88134 5.75 7.99588 6.68331 6.44336 7.89534ZM5.52031 6.71299C7.22595 5.38141 9.42944 4.25 12 4.25C14.5705 4.25 16.774 5.38141 18.4797 6.71299C20.1869 8.04576 21.4488 9.61974 22.1546 10.6095C22.1721 10.634 22.1899 10.6587 22.2078 10.6837C22.461 11.0358 22.75 11.4378 22.75 12C22.75 12.5622 22.461 12.9642 22.2078 13.3163C22.1899 13.3413 22.1721 13.366 22.1546 13.3905C21.4488 14.3803 20.1869 15.9543 18.4797 17.287C16.774 18.6186 14.5705 19.75 12 19.75C9.42944 19.75 7.22596 18.6186 5.52031 17.287C3.81314 15.9543 2.55128 14.3803 1.84542 13.3905M5.52031 6.71299C3.81314 8.04575 2.55127 9.61975 1.84541 10.6095L5.52031 6.71299ZM1.84541 10.6095C1.82795 10.634 1.8102 10.6587 1.79226 10.6836C1.53907 11.0358 1.25 11.4378 1.25 12C1.25 12.5622 1.53907 12.9642 1.79226 13.3164C1.8102 13.3413 1.82797 13.366 1.84542 13.3905" fill="#666666"/>
<path d="M1.84542 13.3905L5.52031 6.71299L1.84541 10.6095L1.84542 13.3905Z" fill="#666666"/>
<path fill-rule="evenodd" clip-rule="evenodd" d="M8.25 12C8.25 9.92889 9.92889 8.25 12 8.25C14.0711 8.25 15.75 9.92889 15.75 12C15.75 14.0711 14.0711 15.75 12 15.75C9.92889 15.75 8.25 14.0711 8.25 12ZM12 9.75C10.7573 9.75 9.75 10.7573 9.75 12C9.75 13.2427 10.7573 14.25 12 14.25C13.2427 14.25 14.25 13.2427 14.25 12C14.25 10.7573 13.2427 9.75 12 9.75Z" fill="#666666"/>
</g>
</g>
</svg>
